<svg width="24" height="24" viewBox="0 0 24 24" fill="none" xmlns="http://www.w3.org/2000/svg">
<g id="ic_chart">
<path id="Vector" d="M7.99949 3.99991H6.99947C5.89618 3.99991 4.9994 4.89608 4.9994 6.00019V19.0004C4.9994 20.1045 5.89618 21.0007 6.99947 21.0007H16.9998C18.1042 21.0007 18.9999 20.1045 18.9999 19.0004V6.00019C18.9999 4.89608 18.1042 3.99991 16.9998 3.99991H15.9998" stroke="#2D3E4F" stroke-width="1.5" stroke-miterlimit="1.5" stroke-linecap="round" stroke-linejoin="round"/>
<path id="Vector_2" d="M15.0008 10.9625L11.9235 14.0389L10.0003 12.1165" stroke="#2D3E4F" stroke-width="1.5" stroke-miterlimit="1.5" stroke-linecap="round" stroke-linejoin="round"/>
<path id="Vector_3" fill-rule="evenodd" clip-rule="evenodd" d="M16 3.99982C16 3.17198 15.3277 2.49982 14.5 2.49982H9.49978C8.67203 2.49982 7.99973 3.17198 7.99973 3.99982C7.99973 4.82765 8.67203 5.49982 9.49978 5.49982H14.5C15.3277 5.49982 16 4.82765 16 3.99982Z" stroke="#2D3E4F" stroke-width="1.5" stroke-miterlimit="1.5" stroke-linecap="round" stroke-linejoin="round"/>
</g>
</svg>
