<svg width="24" height="24" viewBox="0 0 24 24" fill="none" xmlns="http://www.w3.org/2000/svg">
<g id="ic_graph">
<path id="Vector" fill-rule="evenodd" clip-rule="evenodd" d="M9.99958 5.99976C9.99958 5.44737 9.55175 4.99976 8.99954 4.99976C8.12858 4.99976 6.87152 4.99976 5.99944 4.99976C5.44723 4.99976 4.99941 5.44737 4.99941 5.99976C4.99941 9.50134 4.99941 20.9997 4.99941 20.9997H9.99958V5.99976Z" stroke="#2D3E4F" stroke-width="1.5" stroke-miterlimit="1.5" stroke-linecap="round" stroke-linejoin="round"/>
<path id="Vector_2" fill-rule="evenodd" clip-rule="evenodd" d="M14.9996 12.0001C14.9996 11.4477 14.5517 11.0001 13.9995 11.0001C13.1286 11.0001 11.8715 11.0001 10.9994 11.0001C10.4472 11.0001 9.9994 11.4477 9.9994 12.0001C9.9994 14.5327 9.9994 21.0001 9.9994 21.0001H14.9996V12.0001Z" stroke="#2D3E4F" stroke-width="1.5" stroke-miterlimit="1.5" stroke-linecap="round" stroke-linejoin="round"/>
<path id="Vector_3" fill-rule="evenodd" clip-rule="evenodd" d="M19.9996 16.0002C19.9996 15.735 19.8941 15.4807 19.7067 15.2931C19.5192 15.1055 19.2656 15.0002 18.9996 15.0002C18.1286 15.0002 16.8715 15.0002 15.9995 15.0002C15.7346 15.0002 15.4809 15.1055 15.2924 15.2931C15.1049 15.4807 14.9994 15.735 14.9994 16.0002C14.9994 17.7071 14.9994 21.0002 14.9994 21.0002H19.9996V16.0002Z" stroke="#2D3E4F" stroke-width="1.5" stroke-miterlimit="1.5" stroke-linecap="round" stroke-linejoin="round"/>
</g>
</svg>
