<svg width="24" height="24" viewBox="0 0 24 24" fill="none" xmlns="http://www.w3.org/2000/svg">
<g id="ic_lock">
<path id="Vector" d="M15.9239 10.9999V7.00024C15.9239 4.79252 14.1312 3.00055 11.9241 3.00055C9.71593 3.00055 7.92436 4.79252 7.92436 7.00024V10.9999" stroke="#2D3E4F" stroke-width="1.5" stroke-miterlimit="1.5" stroke-linecap="round" stroke-linejoin="round"/>
<path id="Vector_2" fill-rule="evenodd" clip-rule="evenodd" d="M12.0001 13.9989C12.5524 13.9989 13.0001 14.4464 13.0001 14.9987C13.0001 15.6101 13.0001 16.3887 13.0001 17C13.0001 17.5523 12.5524 17.9999 12.0001 17.9999C11.4478 17.9999 11.0001 17.5523 11.0001 17C11.0001 16.3887 11.0001 15.6101 11.0001 14.9987C11.0001 14.4464 11.4478 13.9989 12.0001 13.9989Z" fill="#2D3E4F"/>
<path id="Vector_3" fill-rule="evenodd" clip-rule="evenodd" d="M18.9999 12.0001C18.9999 11.4478 18.552 11.0001 17.9998 11.0001C15.4229 11.0001 8.57752 11.0001 5.99943 11.0001C5.44722 11.0001 4.9994 11.4478 4.9994 12.0001C4.9994 13.6284 4.9994 16.8834 4.9994 19.0001C4.9994 20.1045 5.89506 21.0001 6.99947 21.0001C9.66061 21.0001 14.3387 21.0001 16.9998 21.0001C18.1042 21.0001 18.9999 20.1045 18.9999 19.0001C18.9999 16.8834 18.9999 13.6284 18.9999 12.0001Z" stroke="#2D3E4F" stroke-width="1.5" stroke-miterlimit="1.5" stroke-linecap="round" stroke-linejoin="round"/>
</g>
</svg>
