<svg width="16" height="16" viewBox="0 0 16 16" fill="none" xmlns="http://www.w3.org/2000/svg">
<g id="ic_require">
<path id="Vector" fill-rule="evenodd" clip-rule="evenodd" d="M7.26659 3.72917C7.26917 3.32537 7.59651 2.99976 8.00031 2.99976C8.40325 2.99976 8.73144 3.32537 8.73316 3.72917L8.74691 5.98274C8.74777 6.13223 8.82681 6.26883 8.95569 6.34358C9.08542 6.41832 9.2435 6.41833 9.37323 6.34444L11.3321 5.22926C11.6826 5.02994 12.1285 5.15022 12.3296 5.4999C12.5315 5.84957 12.4138 6.29546 12.065 6.49908L10.1198 7.63746C9.99096 7.71306 9.91192 7.85053 9.91192 8.00003C9.91192 8.14866 9.99096 8.28612 10.1198 8.36172L12.065 9.5001C12.4138 9.70372 12.5315 10.1505 12.3296 10.5002C12.1285 10.849 11.6826 10.9701 11.3321 10.7699L9.37323 9.65475C9.2435 9.58087 9.08542 9.58173 8.95569 9.65561C8.82681 9.73036 8.74777 9.86782 8.74691 10.0165L8.73316 12.2709C8.73144 12.6738 8.40325 12.9994 8.00031 12.9994C7.59651 12.9994 7.26917 12.6738 7.26659 12.2709L7.2537 10.0165C7.25284 9.86782 7.17295 9.73036 7.04407 9.65561C6.91434 9.58173 6.75626 9.58087 6.62653 9.65475L4.66766 10.7699C4.31712 10.9701 3.87122 10.849 3.67018 10.5002C3.46828 10.1505 3.58598 9.70372 3.9348 9.5001L5.87992 8.36172C6.00879 8.28612 6.08784 8.14866 6.08784 8.00003C6.08784 7.85053 6.00879 7.71306 5.87992 7.63746L3.9348 6.49908C3.58598 6.29546 3.46828 5.84957 3.67018 5.4999C3.87122 5.15022 4.31712 5.02994 4.66766 5.22926L6.62653 6.34444C6.75626 6.41833 6.91434 6.41832 7.04407 6.34358C7.17295 6.26883 7.25284 6.13223 7.2537 5.98274L7.26659 3.72917Z" fill="#ED7B3B"/>
</g>
</svg>
