<svg width="24" height="24" viewBox="0 0 24 24" fill="none" xmlns="http://www.w3.org/2000/svg">
<g id="ic_send_state">
<path id="Vector" d="M7.99949 3.99991H6.99947C5.89618 3.99991 4.9994 4.89608 4.9994 6.00019V19.0004C4.9994 20.1045 5.89618 21.0007 6.99947 21.0007H9.99957" stroke="#2D3E4F" stroke-width="1.5" stroke-miterlimit="1.5" stroke-linecap="round" stroke-linejoin="round"/>
<path id="Vector_2" d="M18.9999 9.00008V6.00019C18.9999 4.89608 18.1042 3.99991 16.9998 3.99991H15.9998" stroke="#2D3E4F" stroke-width="1.5" stroke-miterlimit="1.5" stroke-linecap="round" stroke-linejoin="round"/>
<path id="Vector_3" fill-rule="evenodd" clip-rule="evenodd" d="M16 3.99982C16 3.17198 15.3277 2.49982 14.5 2.49982H9.49978C8.67203 2.49982 7.99973 3.17198 7.99973 3.99982C7.99973 4.82765 8.67203 5.49982 9.49978 5.49982H14.5C15.3277 5.49982 16 4.82765 16 3.99982Z" stroke="#2D3E4F" stroke-width="1.5" stroke-miterlimit="1.5" stroke-linecap="round" stroke-linejoin="round"/>
<path id="Vector_4" d="M16.9999 23.0004C20.3136 23.0004 22.9999 20.3141 22.9999 17.0004C22.9999 13.6867 20.3136 11.0004 16.9999 11.0004C13.6862 11.0004 10.9999 13.6867 10.9999 17.0004C10.9999 20.3141 13.6862 23.0004 16.9999 23.0004Z" fill="#2D3E4F"/>
<path id="Vector_5" d="M15 16L17 14L19 16" stroke="white" stroke-width="1.5" stroke-miterlimit="1.5" stroke-linecap="round" stroke-linejoin="round"/>
<path id="Vector_6" d="M16.9998 14V19" stroke="white" stroke-width="1.5" stroke-miterlimit="1.5" stroke-linecap="round" stroke-linejoin="round"/>
</g>
</svg>
