<svg width="24" height="24" viewBox="0 0 24 24" fill="none" xmlns="http://www.w3.org/2000/svg">
<g id="ic_info">
<path id="Vector" d="M11.9997 20C16.4179 20 19.9996 16.4183 19.9996 12.0001C19.9996 7.58189 16.4179 4.00024 11.9997 4.00024C7.58152 4.00024 3.99987 7.58189 3.99987 12.0001C3.99987 16.4183 7.58152 20 11.9997 20Z" stroke="#2D3E4F" stroke-width="1.5" stroke-miterlimit="1.5" stroke-linecap="round" stroke-linejoin="round"/>
<path id="Vector_2" d="M12.0352 10.0002C12.864 10.0002 13.5358 9.32836 13.5358 8.4996C13.5358 7.67084 12.864 6.99896 12.0352 6.99896C11.2065 6.99896 10.5346 7.67084 10.5346 8.4996C10.5346 9.32836 11.2065 10.0002 12.0352 10.0002Z" fill="#2D3E4F"/>
<path id="Vector_3" d="M13.0353 15.0003C13.0353 15.4803 13.5934 16.0002 14.0357 16.0002V16.9895H10.0344V16.0002C10.4609 16.0002 11.0347 15.4803 11.0347 15.0003V12.8295C11.0347 12.4833 10.6135 12.0002 10.0344 12.0002V11.0003L13.0353 10.9895V15.0003Z" fill="#2D3E4F"/>
</g>
</svg>
