<svg width="88" height="24" viewBox="0 0 88 24" fill="none" xmlns="http://www.w3.org/2000/svg">
<g id="Text">
<path id="Union" fill-rule="evenodd" clip-rule="evenodd" d="M42.2565 20.9548H29.9488V15.6903H26.6924V23.7419H42.2565V20.9548ZM38.6411 17.0839H41.8719V0H38.6411V17.0839ZM35.8462 1.4968H23.4872V4.28388H28.1539V6.09033C28.1539 6.72755 28.0296 7.29134 27.7831 7.78166C27.5346 8.27198 27.1894 8.71464 26.7436 9.10968C26.1973 9.59206 25.5563 10.1201 24.8206 10.6978C24.0868 11.2735 23.3077 11.8372 22.4872 12.3871L24.3847 14.7871C25.0356 14.3404 25.6509 13.8938 26.2308 13.4452C26.8127 12.9985 27.3768 12.5519 27.9231 12.1032C28.5227 11.6387 28.9921 11.2397 29.3334 10.9042C29.6766 10.5687 29.8719 10.3226 29.9231 10.1678H29.9488C30.0001 10.3067 30.1835 10.5171 30.501 10.801C30.8166 11.0849 31.2486 11.4243 31.7949 11.8194C32.2742 12.1648 32.7831 12.526 33.3215 12.9032C33.86 13.2824 34.4103 13.6615 34.9744 14.0387L36.718 11.7161C36.0691 11.3032 35.432 10.8784 34.8087 10.4397C34.1835 10.001 33.5997 9.5742 33.0513 9.16129C32.7101 8.90323 32.432 8.65509 32.219 8.41291C32.004 8.17271 31.8344 7.93649 31.7062 7.70424C31.5779 7.47198 31.4912 7.22186 31.4498 6.95585C31.4064 6.68786 31.3847 6.40001 31.3847 6.09033V4.28388H35.8462V1.4968ZM9.28205 3.35484H2.58975V6.11614H9.28205V6.3226C9.28205 6.71962 9.24457 7.07494 9.16765 7.39455C9.09073 7.71216 8.96254 8.00398 8.78305 8.27197C8.60356 8.53797 8.36293 8.78809 8.0651 9.02035C7.7653 9.25261 7.40236 9.49677 6.97435 9.75483C6.17159 10.2193 5.30771 10.6978 4.38463 11.1881C3.46156 11.6784 2.47929 12.1727 1.43589 12.671L2.89743 15.2516C3.94082 14.7534 4.94873 14.2451 5.92309 13.729C6.89745 13.2129 7.80473 12.7146 8.64102 12.2323C9.44576 11.7856 10.0099 11.4283 10.3333 11.1623C10.6588 10.8943 10.8718 10.6581 10.9744 10.4516H11C11.1203 10.6581 11.3294 10.8863 11.6292 11.1365C11.927 11.3846 12.4616 11.734 13.2308 12.1806C14.0691 12.663 14.9744 13.1613 15.9487 13.6774C16.9231 14.1935 17.9329 14.7017 18.9744 15.2L20.4103 12.671C19.3689 12.1727 18.3846 11.6784 17.4615 11.1881C16.5385 10.6978 15.6765 10.2193 14.8718 9.75483C14.428 9.49677 14.0612 9.24863 13.7692 9.00645C13.4793 8.76625 13.2446 8.51217 13.0651 8.24616C12.8856 7.97817 12.7574 7.69032 12.6805 7.38064C12.6036 7.07097 12.5641 6.71962 12.5641 6.3226V6.11614H19.2564V3.35484H12.5641V0.309689H9.28205V3.35484ZM9.30769 14.1677V18.2194H0V20.9806H21.8462V18.2194H12.5385V14.1677H9.30769Z" fill="#1ABCB7"/>
<path id="Union_2" fill-rule="evenodd" clip-rule="evenodd" d="M49.6411 3.32903H44.6154V6.11614H49.6411V8.0258C49.6411 8.54193 49.6115 9.0025 49.5523 9.40746C49.4912 9.81044 49.3847 10.1975 49.2308 10.5687C49.077 10.938 48.8718 11.3032 48.6154 11.6645C48.359 12.0258 48.0434 12.4228 47.6667 12.8516C46.5385 14.0903 45.2742 15.339 43.8718 16.5935L46.0001 18.7871C46.718 18.134 47.3334 17.5444 47.8462 17.0203C48.359 16.4943 48.856 15.9841 49.3334 15.4839C49.7614 15.0372 50.1638 14.5906 50.5385 14.1419C50.9152 13.6953 51.1638 13.3519 51.2821 13.1097H51.3334C51.4202 13.3161 51.6292 13.6139 51.9626 14.001C52.2959 14.3881 52.718 14.8486 53.2308 15.3806C53.7101 15.8809 54.2229 16.401 54.7693 16.9429C55.3176 17.4849 55.864 18.0129 56.4103 18.529L58.4872 16.3613C58.1638 16.0695 57.8344 15.7638 57.501 15.4462C57.1677 15.1265 56.8383 14.8089 56.5129 14.4913L56.4837 14.4625C56.1705 14.1531 55.8668 13.853 55.5779 13.5623C55.2781 13.2605 55.0178 12.9807 54.7949 12.7226C54.4537 12.3454 54.1638 11.9841 53.9231 11.6387C53.6845 11.2953 53.4912 10.938 53.3472 10.5687C53.2012 10.1975 53.0947 9.80646 53.0257 9.39356C52.9586 8.98066 52.9231 8.52604 52.9231 8.0258V6.11614H57.718V3.32903H52.9231V0.154844H49.6411V3.32903ZM66.3077 8.61937H63.0257V0H59.7693V24H63.0257V11.4581H66.3077V8.61937ZM88.0001 20.9806V18.2194H66.1539V20.9806H88.0001ZM68.9744 14.9419H85.2052V12.2064H72.1796V9.72903H84.7437V6.99357H72.1796V4.51615H84.9488V1.78065H68.9744V14.9419Z" fill="#4E5962"/>
</g>
</svg>
